<svg viewBox="0 0 53.3772 55.9998" fill="none" xmlns="http://www.w3.org/2000/svg" xmlns:xlink="http://www.w3.org/1999/xlink" x="0" y="0"><g id="Group_3">
<path id="Vector_13" d="M27.9995,13.1c3.617,0 6.55,-2.933 6.55,-6.55c0,-3.617 -2.933,-6.55 -6.55,-6.55c-3.618,0 -6.55,2.933 -6.55,6.55c0,3.617 2.932,6.55 6.55,6.55z" fill="currentColor"/>
<path id="Vector_14" opacity="0.8" d="M27.9995,56c2.171,0 3.93,-1.76 3.93,-3.93c0,-2.17 -1.759,-3.929 -3.93,-3.929c-2.17,0 -3.929,1.759 -3.929,3.929c0,2.17 1.759,3.93 3.929,3.93z" fill="currentColor"/>
<path id="Vector_15" opacity="0.9" d="M11.9075,19.109c3.256,0 5.895,-2.639 5.895,-5.895c0,-3.256 -2.639,-5.896 -5.895,-5.896c-3.256,0 -5.896,2.64 -5.896,5.896c0,3.256 2.64,5.895 5.896,5.895z" fill="currentColor"/>
<path id="Vector_16" opacity="0.7" d="M44.0955,48.677c1.809,0 3.275,-1.466 3.275,-3.275c0,-1.809 -1.466,-3.275 -3.275,-3.275c-1.809,0 -3.275,1.466 -3.275,3.275c0,1.809 1.466,3.275 3.275,3.275z" fill="currentColor"/>
<path id="Vector_17" opacity="0.9" d="M5.2385,34.55c2.893,0 5.239,-2.346 5.239,-5.239c0,-2.893 -2.346,-5.239 -5.239,-5.239c-2.893,0 -5.239,2.346 -5.239,5.239c0,2.893 2.346,5.239 5.239,5.239z" fill="currentColor"/>
<path id="Vector_18" opacity="0.7" d="M50.7585,31.928c1.446,0 2.619,-1.172 2.619,-2.618c0,-1.446 -1.173,-2.619 -2.619,-2.619c-1.446,0 -2.618,1.173 -2.618,2.619c0,1.446 1.172,2.618 2.618,2.618z" fill="currentColor"/>
<path id="Vector_19" opacity="0.8" d="M8.6635,42.164c-1.791,1.792 -1.791,4.691 0,6.482c1.79,1.792 4.693,1.792 6.482,0c1.792,-1.791 1.792,-4.69 0,-6.482c-1.789,-1.794 -4.69,-1.811 -6.482,0z" fill="currentColor"/>
<path id="Vector_20" opacity="0.5" d="M44.0925,15.179c1.085,0 1.964,-0.879 1.964,-1.963c0,-1.085 -0.879,-1.964 -1.964,-1.964c-1.084,0 -1.964,0.879 -1.964,1.964c0,1.084 0.88,1.963 1.964,1.963z" fill="currentColor"/>
</g></svg>