<svg viewBox="0 0 21.5 21.5" fill="none" xmlns="http://www.w3.org/2000/svg" xmlns:xlink="http://www.w3.org/1999/xlink" x="0" y="0"><path id="Icon_3" d="M10.75,0c5.937,0 10.75,4.813 10.75,10.75c0,5.937 -4.813,10.75 -10.75,10.75c-5.937,0 -10.75,-4.813 -10.75,-10.75c0,-5.937 4.813,-10.75 10.75,-10.75zM15.391,6.981c-0.425,-0.353 -1.056,-0.296 -1.41,0.128l-4.298,5.16l-2.226,-2.226c-0.39,-0.391 -1.024,-0.391 -1.414,0c-0.391,0.39 -0.391,1.024 0,1.414l3,3c0.199,0.199 0.471,0.305 0.752,0.292c0.281,-0.013 0.544,-0.143 0.724,-0.358l5,-6c0.353,-0.425 0.296,-1.056 -0.128,-1.41z" fill="currentColor"/></svg>