<svg viewBox="0 0 20 20" fill="none" xmlns="http://www.w3.org/2000/svg" xmlns:xlink="http://www.w3.org/1999/xlink" x="0" y="0"><path id="Close Square_2" fill-rule="evenodd" clip-rule="evenodd" d="M5.67,0h8.67c3.39,0 5.66,2.38 5.66,5.92v8.171c0,3.53 -2.27,5.909 -5.66,5.909h-8.67c-3.39,0 -5.67,-2.379 -5.67,-5.909v-8.171c0,-3.54 2.28,-5.92 5.67,-5.92zM13.01,13c0.34,-0.339 0.34,-0.889 0,-1.229l-1.78,-1.78l1.78,-1.781c0.34,-0.339 0.34,-0.899 0,-1.239c-0.34,-0.341 -0.89,-0.341 -1.24,0l-1.77,1.779l-1.78,-1.779c-0.35,-0.341 -0.9,-0.341 -1.24,0c-0.34,0.34 -0.34,0.9 0,1.239l1.78,1.781l-1.78,1.77c-0.34,0.35 -0.34,0.9 0,1.239c0.17,0.17 0.4,0.261 0.62,0.261c0.23,0 0.45,-0.091 0.62,-0.261l1.78,-1.769l1.78,1.769c0.17,0.181 0.39,0.261 0.61,0.261c0.23,0 0.45,-0.091 0.62,-0.261z" fill="currentColor"/></svg>