<svg viewBox="0 0 447 117.8848" fill="none" xmlns="http://www.w3.org/2000/svg" xmlns:xlink="http://www.w3.org/1999/xlink" x="0" y="0"><defs><clipPath id="clip1_3030_51686">
<rect width="56" height="56" fill="white" transform="translate(195.5, 0.0004000000000132786)"/>
</clipPath></defs><g id="Frame 1984077284">
<g id="Component/loaders" clip-path="url(#clip1_3030_51686)">
<g id="Group">
<g id="Group_2">
<g id="Group_3">
<path id="Vector_13" d="M224.812,13.1004c3.617,0 6.55,-2.933 6.55,-6.55c0,-3.618 -2.933,-6.55 -6.55,-6.55c-3.618,0 -6.55,2.932 -6.55,6.55c0,3.617 2.932,6.55 6.55,6.55z" fill="currentColor"/>
<path id="Vector_14" opacity="0.8" d="M224.812,55.9994c2.171,0 3.93,-1.759 3.93,-3.929c0,-2.17 -1.759,-3.93 -3.93,-3.93c-2.17,0 -3.929,1.76 -3.929,3.93c0,2.17 1.759,3.929 3.929,3.929z" fill="currentColor"/>
<path id="Vector_15" opacity="0.9" d="M208.72,19.1094c3.256,0 5.895,-2.64 5.895,-5.896c0,-3.256 -2.639,-5.895 -5.895,-5.895c-3.256,0 -5.896,2.639 -5.896,5.895c0,3.256 2.64,5.896 5.896,5.896z" fill="currentColor"/>
<path id="Vector_16" opacity="0.7" d="M240.908,48.6774c1.809,0 3.275,-1.467 3.275,-3.275c0,-1.809 -1.466,-3.275 -3.275,-3.275c-1.809,0 -3.275,1.466 -3.275,3.275c0,1.808 1.466,3.275 3.275,3.275z" fill="currentColor"/>
<path id="Vector_17" opacity="0.9" d="M202.051,34.5494c2.893,0 5.239,-2.345 5.239,-5.238c0,-2.894 -2.346,-5.239 -5.239,-5.239c-2.893,0 -5.239,2.345 -5.239,5.239c0,2.893 2.346,5.238 5.239,5.238z" fill="currentColor"/>
<path id="Vector_18" opacity="0.7" d="M247.571,31.9284c1.446,0 2.619,-1.173 2.619,-2.619c0,-1.446 -1.173,-2.618 -2.619,-2.618c-1.446,0 -2.618,1.172 -2.618,2.618c0,1.446 1.172,2.619 2.618,2.619z" fill="currentColor"/>
<path id="Vector_19" opacity="0.8" d="M205.476,42.1644c-1.791,1.791 -1.791,4.69 0,6.482c1.79,1.791 4.693,1.791 6.482,0c1.792,-1.792 1.792,-4.691 0,-6.482c-1.789,-1.794 -4.69,-1.811 -6.482,0z" fill="currentColor"/>
<path id="Vector_20" opacity="0.5" d="M240.905,15.1794c1.085,0 1.964,-0.879 1.964,-1.964c0,-1.084 -0.879,-1.963 -1.964,-1.963c-1.084,0 -1.964,0.879 -1.964,1.963c0,1.085 0.88,1.964 1.964,1.964z" fill="currentColor"/>
</g>
</g>
</g>
</g>
<path id="Waiting..." d="M198.029,96.0604l-4.04,13.94h-2.04l-3.24,-11.22l-3.36,11.22l-2.02,0.02l-3.9,-13.96h1.94l3.04,11.82l3.36,-11.82h2.04l3.2,11.78l3.06,-11.78zM199.34,104.4804c0,-1.12 0.227,-2.1 0.68,-2.94c0.454,-0.854 1.074,-1.514 1.86,-1.98c0.8,-0.467 1.687,-0.7 2.66,-0.7c0.96,0 1.794,0.206 2.5,0.62c0.707,0.413 1.234,0.933 1.58,1.56v-2h1.84v10.96h-1.84v-2.04c-0.36,0.64 -0.9,1.173 -1.62,1.6c-0.706,0.413 -1.533,0.62 -2.48,0.62c-0.973,0 -1.853,-0.24 -2.64,-0.72c-0.786,-0.48 -1.406,-1.154 -1.86,-2.02c-0.453,-0.867 -0.68,-1.854 -0.68,-2.96zM208.62,104.5004c0,-0.827 -0.166,-1.547 -0.5,-2.16c-0.333,-0.614 -0.786,-1.08 -1.36,-1.4c-0.56,-0.334 -1.18,-0.5 -1.86,-0.5c-0.68,0 -1.3,0.16 -1.86,0.48c-0.56,0.32 -1.006,0.786 -1.34,1.4c-0.333,0.613 -0.5,1.333 -0.5,2.16c0,0.84 0.167,1.573 0.5,2.2c0.334,0.613 0.78,1.086 1.34,1.42c0.56,0.32 1.18,0.48 1.86,0.48c0.68,0 1.3,-0.16 1.86,-0.48c0.574,-0.334 1.027,-0.807 1.36,-1.42c0.334,-0.627 0.5,-1.354 0.5,-2.18zM214.476,97.2604c-0.347,0 -0.64,-0.12 -0.88,-0.36c-0.24,-0.24 -0.36,-0.534 -0.36,-0.88c0,-0.347 0.12,-0.64 0.36,-0.88c0.24,-0.24 0.533,-0.36 0.88,-0.36c0.333,0 0.613,0.12 0.84,0.36c0.24,0.24 0.36,0.533 0.36,0.88c0,0.346 -0.12,0.64 -0.36,0.88c-0.227,0.24 -0.507,0.36 -0.84,0.36zM215.356,99.0404v10.96h-1.82v-10.96zM220.678,100.5404v6.46c0,0.533 0.113,0.913 0.34,1.14c0.227,0.213 0.62,0.32 1.18,0.32h1.34v1.54h-1.64c-1.013,0 -1.773,-0.234 -2.28,-0.7c-0.507,-0.467 -0.76,-1.234 -0.76,-2.3v-6.46h-1.42v-1.5h1.42v-2.76h1.82v2.76h2.86v1.5zM226.683,97.2604c-0.347,0 -0.64,-0.12 -0.88,-0.36c-0.24,-0.24 -0.36,-0.534 -0.36,-0.88c0,-0.347 0.12,-0.64 0.36,-0.88c0.24,-0.24 0.533,-0.36 0.88,-0.36c0.333,0 0.613,0.12 0.84,0.36c0.24,0.24 0.36,0.533 0.36,0.88c0,0.346 -0.12,0.64 -0.36,0.88c-0.227,0.24 -0.507,0.36 -0.84,0.36zM227.563,99.0404v10.96h-1.82v-10.96zM236.005,98.8404c1.333,0 2.413,0.406 3.24,1.22c0.827,0.8 1.24,1.96 1.24,3.48v6.46h-1.8v-6.2c0,-1.094 -0.273,-1.927 -0.82,-2.5c-0.547,-0.587 -1.293,-0.88 -2.24,-0.88c-0.96,0 -1.727,0.3 -2.3,0.9c-0.56,0.6 -0.84,1.473 -0.84,2.62v6.06h-1.82v-10.96h1.82v1.56c0.36,-0.56 0.847,-0.994 1.46,-1.3c0.627,-0.307 1.313,-0.46 2.06,-0.46zM247.978,98.8604c0.947,0 1.773,0.206 2.48,0.62c0.72,0.413 1.253,0.933 1.6,1.56v-2h1.84v11.2c0,1 -0.213,1.886 -0.64,2.66c-0.427,0.786 -1.04,1.4 -1.84,1.84c-0.787,0.44 -1.707,0.66 -2.76,0.66c-1.44,0 -2.64,-0.34 -3.6,-1.02c-0.96,-0.68 -1.527,-1.607 -1.7,-2.78h1.8c0.2,0.666 0.613,1.2 1.24,1.6c0.627,0.413 1.38,0.62 2.26,0.62c1,0 1.813,-0.314 2.44,-0.94c0.64,-0.627 0.96,-1.507 0.96,-2.64v-2.3c-0.36,0.64 -0.893,1.173 -1.6,1.6c-0.707,0.426 -1.533,0.64 -2.48,0.64c-0.973,0 -1.86,-0.24 -2.66,-0.72c-0.787,-0.48 -1.407,-1.154 -1.86,-2.02c-0.453,-0.867 -0.68,-1.854 -0.68,-2.96c0,-1.12 0.227,-2.1 0.68,-2.94c0.453,-0.854 1.073,-1.514 1.86,-1.98c0.8,-0.467 1.687,-0.7 2.66,-0.7zM252.058,104.5004c0,-0.827 -0.167,-1.547 -0.5,-2.16c-0.333,-0.614 -0.787,-1.08 -1.36,-1.4c-0.56,-0.334 -1.18,-0.5 -1.86,-0.5c-0.68,0 -1.3,0.16 -1.86,0.48c-0.56,0.32 -1.007,0.786 -1.34,1.4c-0.333,0.613 -0.5,1.333 -0.5,2.16c0,0.84 0.167,1.573 0.5,2.2c0.333,0.613 0.78,1.086 1.34,1.42c0.56,0.32 1.18,0.48 1.86,0.48c0.68,0 1.3,-0.16 1.86,-0.48c0.573,-0.334 1.027,-0.807 1.36,-1.42c0.333,-0.627 0.5,-1.354 0.5,-2.18zM257.554,110.1204c-0.347,0 -0.64,-0.12 -0.88,-0.36c-0.24,-0.24 -0.36,-0.534 -0.36,-0.88c0,-0.347 0.12,-0.64 0.36,-0.88c0.24,-0.24 0.533,-0.36 0.88,-0.36c0.333,0 0.613,0.12 0.84,0.36c0.24,0.24 0.36,0.533 0.36,0.88c0,0.346 -0.12,0.64 -0.36,0.88c-0.227,0.24 -0.507,0.36 -0.84,0.36zM261.753,110.1204c-0.347,0 -0.64,-0.12 -0.88,-0.36c-0.24,-0.24 -0.36,-0.534 -0.36,-0.88c0,-0.347 0.12,-0.64 0.36,-0.88c0.24,-0.24 0.533,-0.36 0.88,-0.36c0.333,0 0.613,0.12 0.84,0.36c0.24,0.24 0.36,0.533 0.36,0.88c0,0.346 -0.12,0.64 -0.36,0.88c-0.227,0.24 -0.507,0.36 -0.84,0.36zM265.952,110.1204c-0.347,0 -0.64,-0.12 -0.88,-0.36c-0.24,-0.24 -0.36,-0.534 -0.36,-0.88c0,-0.347 0.12,-0.64 0.36,-0.88c0.24,-0.24 0.533,-0.36 0.88,-0.36c0.333,0 0.613,0.12 0.84,0.36c0.24,0.24 0.36,0.533 0.36,0.88c0,0.346 -0.12,0.64 -0.36,0.88c-0.227,0.24 -0.507,0.36 -0.84,0.36z" fill="white"/>
</g></svg>